HIERARCHY
ROOT Hips
{
	OFFSET 0.000000 83.214638 0.000000
	CHANNELS 6 Xposition Yposition Zposition Xrotation Yrotation Zrotation
	JOINT Pelvis
	{
		OFFSET 0.000000 0.000000 0.000000
		CHANNELS 3 Xrotation Yrotation Zrotation
		JOINT LeftUpLeg
		{
			OFFSET 8.479700 -4.795502 -0.379100
			CHANNELS 3 Xrotation Yrotation Zrotation
			JOINT LeftLeg
			{
				OFFSET 0.024144 -32.555107 0.112900
				CHANNELS 3 Xrotation Yrotation Zrotation
				JOINT LeftFoot
				{
					OFFSET -0.024144 -32.638630 -3.012600
					CHANNELS 3 Xrotation Yrotation Zrotation
					JOINT LeftToeBase
					{
						OFFSET 0.970200 -13.225400 11.864200
						CHANNELS 3 Xrotation Yrotation Zrotation
						End Site
						{
							OFFSET 0.000000 12.319262 0.000000
						}
					}
					JOINT LFootTongue
					{
						OFFSET 1.142400 -1.059800 6.665200
						CHANNELS 3 Xrotation Yrotation Zrotation
						End Site
						{
							OFFSET 0.000000 12.319262 0.000000
						}
					}
				}
				JOINT LeftPantLeg
				{
					OFFSET 0.918482 -16.533964 -2.284700
					CHANNELS 3 Xrotation Yrotation Zrotation
					End Site
					{
						OFFSET 0.350399 24.744368 0.000000
					}
				}
			}
		}
		JOINT RightUpLeg
		{
			OFFSET -8.479700 -4.795502 -0.379100
			CHANNELS 3 Xrotation Yrotation Zrotation
			JOINT RightLeg
			{
				OFFSET -0.023144 -32.555092 0.112900
				CHANNELS 3 Xrotation Yrotation Zrotation
				JOINT RightFoot
				{
					OFFSET 0.023144 -32.638641 -3.012700
					CHANNELS 3 Xrotation Yrotation Zrotation
					JOINT RightToeBase
					{
						OFFSET -0.970200 -13.225400 11.864200
						CHANNELS 3 Xrotation Yrotation Zrotation
						End Site
						{
							OFFSET 0.000000 12.319244 0.000000
						}
					}
					JOINT RFootTongue
					{
						OFFSET -1.142200 -1.059800 6.665200
						CHANNELS 3 Xrotation Yrotation Zrotation
						End Site
						{
							OFFSET 0.000000 12.319243 0.000000
						}
					}
				}
				JOINT RightPantLeg
				{
					OFFSET -0.919482 -16.533978 -2.284800
					CHANNELS 3 Xrotation Yrotation Zrotation
					End Site
					{
						OFFSET -0.350400 24.744419 0.000000
					}
				}
			}
		}
	}
	JOINT Spine
	{
		OFFSET 0.000000 7.722000 1.166200
		CHANNELS 3 Xrotation Yrotation Zrotation
		JOINT Spine1
		{
			OFFSET 0.000000 12.024101 0.248800
			CHANNELS 3 Xrotation Yrotation Zrotation
			JOINT Spine2
			{
				OFFSET 0.000000 11.502998 -0.491200
				CHANNELS 3 Xrotation Yrotation Zrotation
				JOINT Neck
				{
					OFFSET 0.000000 18.430702 -3.123100
					CHANNELS 3 Xrotation Yrotation Zrotation
					JOINT Head
					{
						OFFSET 0.000000 9.051102 1.034000
						CHANNELS 3 Xrotation Yrotation Zrotation
						JOINT HairB
						{
							OFFSET 0.208400 24.786102 24.822300
							CHANNELS 3 Xrotation Yrotation Zrotation
							End Site
							{
								OFFSET 0.000000 32.263779 0.000000
							}
						}
						JOINT HairA
						{
							OFFSET -7.081100 24.428299 23.196600
							CHANNELS 3 Xrotation Yrotation Zrotation
							End Site
							{
								OFFSET 0.000000 32.263779 0.000000
							}
						}
						JOINT Hat
						{
							OFFSET 16.728800 15.048294 -15.439601
							CHANNELS 3 Xrotation Yrotation Zrotation
							End Site
							{
								OFFSET 0.000000 32.263779 0.000000
							}
						}
					}
				}
				JOINT LeftShoulder
				{
					OFFSET 6.197800 13.665199 -4.064700
					CHANNELS 3 Xrotation Yrotation Zrotation
					JOINT LeftArm
					{
						OFFSET 7.778100 -0.187103 -1.709300
						CHANNELS 3 Xrotation Yrotation Zrotation
						JOINT LeftForeArm
						{
							OFFSET 22.049376 0.000000 0.000000
							CHANNELS 3 Xrotation Yrotation Zrotation
							JOINT LeftHand
							{
								OFFSET 23.009392 0.000000 0.000000
								CHANNELS 3 Xrotation Yrotation Zrotation
								JOINT LeftHandThumb1
								{
									OFFSET 3.507191 -2.063065 3.133727
									CHANNELS 3 Xrotation Yrotation Zrotation
									JOINT LeftHandThumb2
									{
										OFFSET 3.101337 -1.790558 1.790558
										CHANNELS 3 Xrotation Yrotation Zrotation
										JOINT LeftHandThumb3
										{
											OFFSET 3.058640 -1.765907 1.765906
											CHANNELS 3 Xrotation Yrotation Zrotation
											End Site
											{
												OFFSET -0.415260 3.926476 -0.049563
											}
										}
									}
								}
								JOINT LeftHandIndex1
								{
									OFFSET 11.334419 -0.901459 3.706815
									CHANNELS 3 Xrotation Yrotation Zrotation
									JOINT LeftHandIndex2
									{
										OFFSET 3.283112 0.000000 0.000000
										CHANNELS 3 Xrotation Yrotation Zrotation
										JOINT LeftHandIndex3
										{
											OFFSET 3.323853 0.000000 0.000000
											CHANNELS 3 Xrotation Yrotation Zrotation
											End Site
											{
												OFFSET -1.135597 3.097809 0.402452
											}
										}
									}
								}
								JOINT LeftHandMiddle1
								{
									OFFSET 11.335861 0.000000 0.000000
									CHANNELS 3 Xrotation Yrotation Zrotation
									JOINT LeftHandMiddle2
									{
										OFFSET 3.410492 0.000000 0.000000
										CHANNELS 3 Xrotation Yrotation Zrotation
										JOINT LeftHandMiddle3
										{
											OFFSET 3.312172 0.000000 0.000000
											CHANNELS 3 Xrotation Yrotation Zrotation
											End Site
											{
												OFFSET -1.150200 3.080154 0.400270
											}
										}
									}
								}
								JOINT LeftHandRing1
								{
									OFFSET 11.514786 -0.013176 -3.003090
									CHANNELS 3 Xrotation Yrotation Zrotation
									JOINT LeftHandRing2
									{
										OFFSET 3.053307 0.000000 0.000000
										CHANNELS 3 Xrotation Yrotation Zrotation
										JOINT LeftHandRing3
										{
											OFFSET 3.295807 0.000000 0.000000
											CHANNELS 3 Xrotation Yrotation Zrotation
											End Site
											{
												OFFSET -1.281006 3.013344 0.375733
											}
										}
									}
								}
								JOINT LeftHandPinky1
								{
									OFFSET 10.518692 -0.960396 -5.730441
									CHANNELS 3 Xrotation Yrotation Zrotation
									JOINT LeftHandPinky2
									{
										OFFSET 2.861649 0.000000 0.000000
										CHANNELS 3 Xrotation Yrotation Zrotation
										JOINT LeftHandPinky3
										{
											OFFSET 2.863380 0.000000 0.000000
											CHANNELS 3 Xrotation Yrotation Zrotation
											End Site
											{
												OFFSET -0.843597 2.711159 0.369971
											}
										}
									}
								}
							}
							JOINT LSleeve
							{
								OFFSET 6.676277 -0.344902 -1.011730
								CHANNELS 3 Xrotation Yrotation Zrotation
								End Site
								{
									OFFSET 0.000000 14.885353 0.000000
								}
							}
						}
					}
				}
				JOINT RightShoulder
				{
					OFFSET -6.197800 13.665199 -4.064700
					CHANNELS 3 Xrotation Yrotation Zrotation
					JOINT RightArm
					{
						OFFSET -7.778100 -0.187103 -1.709300
						CHANNELS 3 Xrotation Yrotation Zrotation
						JOINT RightForeArm
						{
							OFFSET -22.049376 0.000000 0.000000
							CHANNELS 3 Xrotation Yrotation Zrotation
							JOINT RightHand
							{
								OFFSET -23.009392 0.000000 0.000000
								CHANNELS 3 Xrotation Yrotation Zrotation
								JOINT RightHandThumb1
								{
									OFFSET -3.507191 -2.063065 3.133727
									CHANNELS 3 Xrotation Yrotation Zrotation
									JOINT RightHandThumb2
									{
										OFFSET -3.101337 -1.790558 1.790558
										CHANNELS 3 Xrotation Yrotation Zrotation
										JOINT RightHandThumb3
										{
											OFFSET -3.058640 -1.765907 1.765906
											CHANNELS 3 Xrotation Yrotation Zrotation
											End Site
											{
												OFFSET 0.415260 3.926476 -0.049563
											}
										}
									}
								}
								JOINT RightHandIndex1
								{
									OFFSET -11.334419 -0.901459 3.706815
									CHANNELS 3 Xrotation Yrotation Zrotation
									JOINT RightHandIndex2
									{
										OFFSET -3.283112 0.000000 0.000000
										CHANNELS 3 Xrotation Yrotation Zrotation
										JOINT RightHandIndex3
										{
											OFFSET -3.323853 0.000000 0.000000
											CHANNELS 3 Xrotation Yrotation Zrotation
											End Site
											{
												OFFSET 1.135597 3.097809 0.402452
											}
										}
									}
								}
								JOINT RightHandMiddle1
								{
									OFFSET -11.335861 0.000000 0.000000
									CHANNELS 3 Xrotation Yrotation Zrotation
									JOINT RightHandMiddle2
									{
										OFFSET -3.410492 0.000000 0.000000
										CHANNELS 3 Xrotation Yrotation Zrotation
										JOINT RightHandMiddle3
										{
											OFFSET -3.312172 0.000000 0.000000
											CHANNELS 3 Xrotation Yrotation Zrotation
											End Site
											{
												OFFSET 1.150200 3.080154 0.400270
											}
										}
									}
								}
								JOINT RightHandRing1
								{
									OFFSET -11.514786 -0.013176 -3.003090
									CHANNELS 3 Xrotation Yrotation Zrotation
									JOINT RightHandRing2
									{
										OFFSET -3.053307 0.000000 0.000000
										CHANNELS 3 Xrotation Yrotation Zrotation
										JOINT RightHandRing3
										{
											OFFSET -3.295807 0.000000 0.000000
											CHANNELS 3 Xrotation Yrotation Zrotation
											End Site
											{
												OFFSET 1.281006 3.013344 0.375733
											}
										}
									}
								}
								JOINT RightHandPinky1
								{
									OFFSET -10.518692 -0.960396 -5.730441
									CHANNELS 3 Xrotation Yrotation Zrotation
									JOINT RightHandPinky2
									{
										OFFSET -2.861649 0.000000 0.000000
										CHANNELS 3 Xrotation Yrotation Zrotation
										JOINT RightHandPinky3
										{
											OFFSET -2.863380 0.000000 0.000000
											CHANNELS 3 Xrotation Yrotation Zrotation
											End Site
											{
												OFFSET 0.843597 2.711159 0.369971
											}
										}
									}
								}
							}
							JOINT RSleeve
							{
								OFFSET -6.676277 -0.344902 -1.011730
								CHANNELS 3 Xrotation Yrotation Zrotation
								End Site
								{
									OFFSET 0.000000 14.885353 0.000000
								}
							}
						}
					}
				}
				JOINT Backpack
				{
					OFFSET 0.000000 -2.471497 36.677502
					CHANNELS 3 Xrotation Yrotation Zrotation
					End Site
					{
						OFFSET 0.000000 20.427315 0.000000
					}
				}
				JOINT Hood
				{
					OFFSET 0.000000 18.754097 -10.431000
					CHANNELS 3 Xrotation Yrotation Zrotation
					JOINT Hood1
					{
						OFFSET 0.000000 -5.011002 -7.685901
						CHANNELS 3 Xrotation Yrotation Zrotation
						End Site
						{
							OFFSET 0.000000 9.175140 0.000000
						}
					}
				}
				JOINT LHoodieString
				{
					OFFSET 5.250500 16.397697 3.089900
					CHANNELS 3 Xrotation Yrotation Zrotation
					JOINT LHoodieString1
					{
						OFFSET 0.257700 -6.364304 3.694600
						CHANNELS 3 Xrotation Yrotation Zrotation
						JOINT LHoodieString2
						{
							OFFSET 0.000000 -9.643799 2.679100
							CHANNELS 3 Xrotation Yrotation Zrotation
							End Site
							{
								OFFSET 0.000000 10.009018 0.000000
							}
						}
					}
				}
				JOINT RHoodieString
				{
					OFFSET -5.250500 16.397697 3.089900
					CHANNELS 3 Xrotation Yrotation Zrotation
					JOINT RHoodieString1
					{
						OFFSET -0.257700 -6.364304 3.694600
						CHANNELS 3 Xrotation Yrotation Zrotation
						JOINT RHoodieString2
						{
							OFFSET 0.000000 -9.643799 2.679100
							CHANNELS 3 Xrotation Yrotation Zrotation
							End Site
							{
								OFFSET 0.000000 10.009018 0.000000
							}
						}
					}
				}
			}
			JOINT LBackpack_Strap
			{
				OFFSET 15.223200 -7.719803 -6.610900
				CHANNELS 3 Xrotation Yrotation Zrotation
				End Site
				{
					OFFSET 0.000000 16.040596 0.000000
				}
			}
			JOINT RBackpack_Strap
			{
				OFFSET -15.223000 -7.719803 -6.610900
				CHANNELS 3 Xrotation Yrotation Zrotation
				End Site
				{
					OFFSET 0.000000 16.040596 0.000000
				}
			}
		}
	}
	JOINT BoyFacialAnim_Joint
	{
		OFFSET 1.000000 -82.208099 -1.550900
		CHANNELS 3 Xrotation Yrotation Zrotation
		End Site
		{
			OFFSET 0.000000 30.012791 0.000000
		}
	}
}
MOTION
Frames: 5
Frame Time: 0.033333
16.856487 84.425659 -0.269441 -0.019829 -35.399033 2.873739 -0.000000 0.000001 0.000000 -7.059631 13.417097 0.914957 22.453516 -9.140658 -1.810042 10.946770 0.001591 1.999899 0.000001 0.000001 -0.000000 0.000001 0.000001 -0.000001 0.000001 -0.000003 0.000000 -23.342704 9.640486 -4.268619 31.602264 14.037728 1.084088 21.692476 -4.054917 -0.023410 -0.000002 -0.000001 0.000001 -0.000002 -0.000001 0.000001 -0.000000 0.000001 -0.000000 4.760305 3.387125 7.046949 -3.733611 2.947156 -2.746712 -3.599819 2.996178 -2.874883 6.540804 19.700871 -0.351439 -0.306239 13.419046 -2.608626 -0.000000 -0.000000 0.000000 -0.000000 -0.000000 0.000000 -0.000000 -0.000000 0.000000 3.451144 -3.665748 -2.731819 4.707430 2.405843 -74.316420 1.118071 -18.595871 0.793889 -3.213422 4.281210 3.777200 10.756257 -0.276895 15.889013 -2.287790 24.141580 -5.955558 0.000003 0.000001 -0.000000 1.190031 0.645500 -2.359402 -1.785147 1.897623 -14.058945 -0.000004 0.000001 -0.000003 -1.911295 4.424807 -6.686802 -0.023192 4.066053 -21.039938 -0.000002 -0.000001 -0.000002 -3.666933 10.861148 -4.175713 2.994871 3.446713 -26.557594 0.000000 0.000000 -0.000000 -4.042508 12.925244 -14.495726 8.429218 2.580729 -28.367591 -0.000002 -0.000001 0.000001 -0.000000 0.000002 0.000000 2.821812 10.360047 -4.624452 3.695924 -2.053775 79.079677 -1.116541 19.756718 -0.890337 -1.974646 -2.157939 1.789543 16.289318 -7.753783 -18.332105 0.972811 -35.382607 7.870914 0.000001 0.000001 0.000001 2.359353 -3.640717 13.812931 -2.163456 -2.440213 24.009030 -0.000000 -0.000000 0.000002 -1.975031 -5.685639 27.840266 0.268616 -5.071367 41.194835 -0.000000 -0.000001 -0.000000 -4.978425 -10.114095 25.003364 4.022326 -4.055633 47.493113 -0.000001 0.000000 0.000004 -6.468616 -11.338765 37.534403 10.719394 -2.590795 49.095068 0.000001 0.000001 0.000002 -0.000000 -0.000004 0.000002 -0.000000 -0.000001 0.000000 -0.000000 -0.000001 0.000000 -0.000000 -0.000001 0.000000 -0.000000 -0.000001 0.000000 -0.000000 -0.000001 -0.000000 0.000000 -0.000001 -0.000000 -0.000000 -0.000001 0.000000 -0.000000 -0.000001 -0.000000 0.000000 -0.000001 -0.000000 -0.000000 -0.000001 -0.000000 -0.000000 -0.000001 -0.000000 -0.000000 0.000001 0.000000 
17.308445 84.351379 -0.224496 0.170296 -38.184480 3.016159 -0.000000 0.000000 -0.000000 -7.001667 12.987145 0.047674 22.780213 -6.367135 -1.465501 10.378420 0.095065 1.686067 0.000001 0.000001 -0.000000 0.000001 0.000001 -0.000000 -0.000001 0.000001 -0.000001 -24.109820 7.069853 -4.447798 31.831321 11.138499 0.849159 21.780900 -2.010483 -0.844244 -0.000001 0.000001 -0.000001 -0.000001 0.000001 -0.000001 0.000000 -0.000001 0.000000 4.959929 3.403776 6.907403 -3.830038 2.949212 -2.652621 -3.701848 2.999021 -2.783599 6.653900 20.803807 -0.274961 -0.254497 14.332192 -2.905502 0.000000 0.000000 0.000000 0.000000 0.000000 0.000000 0.000000 0.000000 0.000000 3.486383 -4.206039 -2.259707 4.486087 2.899969 -74.414809 0.972866 -18.636834 0.912715 -3.213994 4.143935 3.104933 10.756253 -0.276897 15.889011 -2.298311 24.126077 -5.955836 0.000001 0.000001 -0.000000 1.190538 0.644782 -2.340695 -1.785138 1.897225 -14.040243 0.000001 0.000000 -0.000002 -1.911546 4.424047 -6.668122 -0.023764 4.065639 -21.021234 0.000001 -0.000001 -0.000002 -3.666490 10.860834 -4.157075 2.995001 3.446524 -26.538956 0.000000 0.000001 -0.000000 -4.043261 12.924386 -14.476936 8.428896 2.580107 -28.348804 -0.000003 -0.000001 -0.000000 0.000003 -0.000001 0.000002 2.865975 9.976957 -4.438088 3.836156 -2.200697 78.961700 -1.322593 19.217627 -1.014292 -1.939763 -2.342386 1.482611 16.287290 -7.743059 -18.330988 0.967703 -35.372918 7.870996 0.000001 0.000001 -0.000000 2.359608 -3.640227 13.801142 -2.163495 -2.439844 23.997248 -0.000002 -0.000002 0.000001 -1.975409 -5.685278 27.809436 0.267859 -5.071555 41.164034 -0.000001 0.000002 0.000004 -4.978417 -10.113520 24.972604 4.022223 -4.055050 47.462291 0.000001 0.000000 -0.000003 -6.469306 -11.338596 37.503500 10.718774 -2.590359 49.064172 0.000000 -0.000002 0.000003 0.000003 0.000002 -0.000002 -0.000000 0.000000 0.000000 -0.000000 0.000000 0.000000 -0.000000 0.000000 0.000000 -0.000000 0.000000 0.000000 -0.000000 0.000000 -0.000000 0.000000 0.000000 -0.000000 -0.000000 0.000000 0.000000 -0.000000 0.000000 -0.000000 0.000000 0.000000 -0.000000 0.000000 0.000002 -0.000001 0.000000 0.000002 -0.000001 -0.000000 0.000000 -0.000000 
17.715399 84.299187 -0.181238 0.046424 -40.657275 3.121563 0.000000 -0.000000 -0.000000 -6.631437 12.429472 -1.018441 22.840286 -3.588356 -1.057909 10.097303 0.178693 1.268163 -0.000000 -0.000002 0.000000 -0.000000 -0.000002 -0.000000 -0.000000 0.000000 0.000000 -24.412382 5.067760 -4.788632 31.862884 8.738832 0.658594 21.542705 -0.233061 -1.447088 -0.000000 0.000000 -0.000000 -0.000000 0.000000 -0.000000 0.000001 -0.000000 0.000000 5.419327 3.338815 6.556170 -3.897247 2.921628 -2.593275 -3.777225 2.959499 -2.725372 6.669272 21.719785 0.010680 -0.118894 15.081561 -3.134227 0.000000 0.000000 -0.000000 0.000000 0.000000 -0.000000 0.000000 0.000000 -0.000000 3.523769 -4.755318 -1.732771 4.211679 2.818318 -74.483534 0.578827 -18.536681 0.815214 -3.236532 4.285714 3.012005 10.756252 -0.276896 15.889009 -2.303815 24.117994 -5.955046 0.000000 -0.000001 -0.000002 1.191141 0.643708 -2.331099 -1.785152 1.896521 -14.030683 0.000005 0.000001 -0.000002 -1.911795 4.422971 -6.658573 -0.024910 4.065145 -21.011627 0.000006 -0.000002 -0.000000 -3.665858 10.860192 -4.147675 2.995210 3.446005 -26.529348 -0.000002 -0.000000 -0.000002 -4.044481 12.923278 -14.467184 8.428387 2.579176 -28.339124 -0.000001 -0.000000 -0.000000 0.000002 0.000000 0.000002 2.886213 9.599498 -4.074614 4.040412 -2.835269 78.799052 -1.787887 18.910210 -1.090669 -1.911006 -2.398619 2.074050 16.284933 -7.711659 -18.324272 0.949901 -35.345153 7.866423 -0.000001 0.000003 0.000001 2.359864 -3.639505 13.766614 -2.163579 -2.439230 23.962786 0.000002 0.000001 0.000000 -1.976099 -5.684435 27.719279 0.267138 -5.071799 41.073841 0.000001 0.000002 -0.000002 -4.978391 -10.112309 24.882627 4.021924 -4.053754 47.372078 -0.000001 -0.000002 0.000004 -6.469971 -11.338314 37.413300 10.717585 -2.589531 48.973877 0.000002 0.000001 -0.000001 0.000001 -0.000000 0.000001 0.000000 -0.000001 -0.000000 0.000000 -0.000001 -0.000000 0.000000 -0.000001 -0.000000 0.000000 -0.000001 -0.000000 0.000000 -0.000001 -0.000000 0.000000 -0.000001 -0.000000 0.000000 -0.000001 -0.000000 0.000000 -0.000001 -0.000000 0.000000 -0.000001 -0.000000 -0.000000 -0.000001 -0.000001 -0.000000 -0.000001 -0.000001 0.000000 -0.000000 -0.000000 
18.091389 84.251305 -0.130482 -0.246824 -43.028464 3.199142 0.000000 -0.000000 -0.000000 -6.113152 11.801004 -2.197606 22.732089 -0.731843 -0.615028 9.952262 0.262275 0.780709 0.000001 -0.000001 0.000000 0.000001 -0.000001 -0.000000 0.000001 0.000001 -0.000001 -24.667278 2.916268 -5.376122 31.886277 8.025692 0.602739 21.307564 0.072350 -1.742719 0.000000 -0.000001 0.000001 0.000000 -0.000001 0.000001 -0.000001 -0.000000 -0.000000 6.001464 3.254686 6.137275 -3.982707 2.900072 -2.588790 -3.870255 2.921397 -2.717655 6.707709 22.569233 0.225941 -0.028394 15.699485 -3.125918 0.000000 0.000000 -0.000000 0.000000 0.000000 -0.000000 0.000000 0.000000 -0.000000 3.563719 -5.217826 -1.221261 3.874123 2.473286 -74.628341 -0.144322 -18.333889 0.549759 -3.291561 4.270933 3.710557 10.756251 -0.276895 15.889014 -2.293691 24.131772 -5.955669 0.000001 -0.000002 -0.000004 1.191645 0.642585 -2.347931 -1.785213 1.895760 -14.047525 0.000003 -0.000000 -0.000000 -1.912071 4.421867 -6.675387 -0.026172 4.064643 -21.028371 0.000007 -0.000000 0.000000 -3.665266 10.859500 -4.164664 2.995412 3.445477 -26.546114 0.000003 -0.000001 -0.000000 -4.045869 12.922127 -14.483814 8.427899 2.578205 -28.355740 -0.000002 0.000000 0.000002 0.000003 -0.000001 0.000001 2.917703 9.258292 -3.767659 4.333935 -3.325747 78.683185 -1.947647 18.664219 -1.198717 -1.873804 -2.577122 2.574078 16.279956 -7.661190 -18.313074 0.919133 -35.301017 7.859233 0.000002 0.000003 0.000003 2.360181 -3.639035 13.710673 -2.163674 -2.438401 23.906895 -0.000001 0.000000 0.000002 -1.977053 -5.683172 27.573197 0.267322 -5.072037 40.927771 -0.000000 -0.000000 0.000001 -4.978384 -10.110478 24.736722 4.021437 -4.053809 47.225977 -0.000000 0.000000 0.000004 -6.469714 -11.337982 37.267326 10.717582 -2.588259 48.827605 0.000001 0.000000 -0.000001 0.000003 -0.000001 -0.000001 -0.000000 0.000000 0.000000 -0.000000 0.000000 0.000000 -0.000000 0.000000 0.000000 -0.000000 0.000000 0.000000 -0.000000 0.000000 -0.000000 -0.000000 0.000002 0.000000 -0.000000 0.000000 0.000000 -0.000000 0.000000 -0.000000 -0.000000 0.000002 0.000000 -0.000000 -0.000002 0.000000 -0.000000 -0.000002 0.000000 0.000000 -0.000000 -0.000000 
18.434250 84.209900 -0.087396 -0.269714 -45.358658 3.338374 0.000000 -0.000001 0.000000 -5.939036 11.149905 -3.218495 22.672255 2.074489 -0.130479 9.846583 0.343001 0.235854 -0.000001 0.000000 -0.000000 -0.000001 0.000000 -0.000000 0.000000 0.000002 -0.000001 -25.224541 0.895559 -5.852560 31.712363 6.731369 0.501851 21.560674 0.112188 -1.759467 -0.000000 0.000001 -0.000002 -0.000000 0.000001 -0.000002 -0.000001 -0.000001 0.000000 6.286098 3.212504 5.892138 -4.099872 2.889357 -2.571591 -3.992673 2.903637 -2.706208 7.022874 23.379697 0.249001 0.027025 16.222367 -2.982317 -0.000000 0.000000 -0.000000 -0.000000 0.000000 -0.000000 -0.000000 0.000000 -0.000000 3.591313 -5.580888 -0.898752 3.473959 2.279172 -74.760881 -0.903703 -18.173499 0.366926 -3.319221 3.972703 3.744776 10.756255 -0.276896 15.889016 -2.221138 24.249431 -5.954379 -0.000000 0.000001 0.000005 1.191719 0.643242 -2.486436 -1.785436 1.896801 -14.185999 -0.000001 -0.000000 -0.000005 -1.912006 4.422328 -6.813888 -0.024977 4.064970 -21.166936 0.000002 0.000001 -0.000003 -3.665456 10.860604 -4.303050 2.995145 3.446019 -26.684646 0.000004 0.000002 -0.000002 -4.045069 12.922474 -14.622462 8.428655 2.578777 -28.494388 -0.000002 -0.000001 0.000001 0.000003 0.000001 -0.000002 2.990860 9.029989 -3.711324 4.769519 -3.526953 78.682550 -2.172088 18.333310 -1.249934 -1.836558 -2.747464 2.712732 16.273727 -7.592349 -18.298044 0.875212 -35.241946 7.849726 -0.000002 0.000000 0.000001 2.360579 -3.639221 13.634667 -2.163822 -2.437915 23.830810 -0.000000 0.000000 0.000002 -1.978278 -5.681497 27.374534 0.266875 -5.072365 40.729142 -0.000001 0.000000 0.000003 -4.978428 -10.109331 24.538235 4.020788 -4.053667 47.027331 0.000001 -0.000001 0.000002 -6.470058 -11.337493 37.068676 10.717463 -2.587275 48.628819 0.000000 0.000000 -0.000001 -0.000001 0.000001 -0.000001 0.000000 0.000003 -0.000000 0.000000 0.000003 -0.000000 0.000000 0.000003 -0.000000 0.000000 0.000003 -0.000000 0.000000 0.000003 -0.000000 0.000000 -0.000001 -0.000000 0.000000 0.000003 -0.000000 0.000000 0.000003 -0.000000 0.000000 -0.000001 -0.000000 -0.000000 0.000001 -0.000000 -0.000000 0.000001 -0.000000 0.000000 -0.000001 0.000000 
